HIERARCHY
ROOT Hip
{
  OFFSET 0.000000 0.000000 0.000000
  CHANNELS 6 Xposition Yposition Zposition Zrotation Xrotation Yrotation
  JOINT RHip
  {
    OFFSET 0.000000 0.000000 0.000000
    CHANNELS 3 Xposition Yposition Zposition
    End Site
    {
      OFFSET 0.000000 0.100000 0.000000
    }
  }
  JOINT RKnee
  {
    OFFSET 0.000000 0.000000 0.000000
    CHANNELS 3 Xposition Yposition Zposition
    End Site
    {
      OFFSET 0.000000 0.100000 0.000000
    }
  }
  JOINT RFoot
  {
    OFFSET 0.000000 0.000000 0.000000
    CHANNELS 3 Xposition Yposition Zposition
    End Site
    {
      OFFSET 0.000000 0.100000 0.000000
    }
  }
  JOINT LHip
  {
    OFFSET 0.000000 0.000000 0.000000
    CHANNELS 3 Xposition Yposition Zposition
    End Site
    {
      OFFSET 0.000000 0.100000 0.000000
    }
  }
  JOINT LKnee
  {
    OFFSET 0.000000 0.000000 0.000000
    CHANNELS 3 Xposition Yposition Zposition
    End Site
    {
      OFFSET 0.000000 0.100000 0.000000
    }
  }
  JOINT LFoot
  {
    OFFSET 0.000000 0.000000 0.000000
    CHANNELS 3 Xposition Yposition Zposition
    End Site
    {
      OFFSET 0.000000 0.100000 0.000000
    }
  }
  JOINT Spine
  {
    OFFSET 0.000000 0.000000 0.000000
    CHANNELS 3 Xposition Yposition Zposition
    End Site
    {
      OFFSET 0.000000 0.100000 0.000000
    }
  }
  JOINT Thorax
  {
    OFFSET 0.000000 0.000000 0.000000
    CHANNELS 3 Xposition Yposition Zposition
    End Site
    {
      OFFSET 0.000000 0.100000 0.000000
    }
  }
  JOINT Nose
  {
    OFFSET 0.000000 0.000000 0.000000
    CHANNELS 3 Xposition Yposition Zposition
    End Site
    {
      OFFSET 0.000000 0.100000 0.000000
    }
  }
  JOINT Head
  {
    OFFSET 0.000000 0.000000 0.000000
    CHANNELS 3 Xposition Yposition Zposition
    End Site
    {
      OFFSET 0.000000 0.100000 0.000000
    }
  }
  JOINT LShoulder
  {
    OFFSET 0.000000 0.000000 0.000000
    CHANNELS 3 Xposition Yposition Zposition
    End Site
    {
      OFFSET 0.000000 0.100000 0.000000
    }
  }
  JOINT LElbow
  {
    OFFSET 0.000000 0.000000 0.000000
    CHANNELS 3 Xposition Yposition Zposition
    End Site
    {
      OFFSET 0.000000 0.100000 0.000000
    }
  }
  JOINT LWrist
  {
    OFFSET 0.000000 0.000000 0.000000
    CHANNELS 3 Xposition Yposition Zposition
    End Site
    {
      OFFSET 0.000000 0.100000 0.000000
    }
  }
  JOINT RShoulder
  {
    OFFSET 0.000000 0.000000 0.000000
    CHANNELS 3 Xposition Yposition Zposition
    End Site
    {
      OFFSET 0.000000 0.100000 0.000000
    }
  }
  JOINT RElbow
  {
    OFFSET 0.000000 0.000000 0.000000
    CHANNELS 3 Xposition Yposition Zposition
    End Site
    {
      OFFSET 0.000000 0.100000 0.000000
    }
  }
  JOINT RWrist
  {
    OFFSET 0.000000 0.000000 0.000000
    CHANNELS 3 Xposition Yposition Zposition
    End Site
    {
      OFFSET 0.000000 0.100000 0.000000
    }
  }
}
MOTION
Frames: 17
Frame Time: 0.040000
0.137997 1.190986 0.000089 0.000000 0.000000 0.000000 0.080700 -0.016228 -0.103715 -0.004944 -0.565390 -0.121091 0.058900 -1.165602 -0.000130 -0.080697 0.016248 0.103577 -0.196120 -0.514758 0.069845 -0.219342 -1.034763 0.355486 -0.147752 0.273862 -0.024158 -0.334309 0.577405 -0.022579 -0.515931 0.708831 0.084436 -0.376816 0.767797 0.054043 -0.269572 0.557528 0.116799 -0.008004 0.360012 0.248510 -0.123209 0.070853 0.348530 -0.344723 0.471526 -0.158465 -0.370275 0.095502 -0.136661 -0.400908 -0.188278 0.065173
0.132137 1.192963 0.000089 0.000000 0.000000 0.000000 0.080621 -0.015601 -0.102495 -0.003023 -0.565894 -0.120528 0.058437 -1.167636 0.002352 -0.080618 0.015621 0.102357 -0.196946 -0.516819 0.073386 -0.219038 -1.038592 0.356425 -0.149093 0.273833 -0.023684 -0.333157 0.577550 -0.021065 -0.515745 0.711120 0.087331 -0.377220 0.769429 0.057885 -0.270454 0.556969 0.117383 -0.012673 0.353336 0.245340 -0.123243 0.062206 0.343811 -0.341973 0.473248 -0.156630 -0.359775 0.097061 -0.137795 -0.381534 -0.185447 0.062020
0.125869 1.194648 0.000089 0.000000 0.000000 0.000000 0.081202 -0.015039 -0.102150 -0.001044 -0.567051 -0.120167 0.058022 -1.169765 0.007850 -0.081199 0.015059 0.102013 -0.198228 -0.519033 0.077252 -0.219148 -1.041879 0.359591 -0.150083 0.274174 -0.023418 -0.331489 0.578016 -0.019768 -0.514482 0.713804 0.089736 -0.377390 0.771376 0.061487 -0.271176 0.556669 0.118516 -0.018573 0.346422 0.242806 -0.124774 0.053894 0.341309 -0.338299 0.475414 -0.155738 -0.348508 0.098991 -0.140595 -0.362694 -0.182422 0.056319
0.119094 1.195881 0.000088 0.000000 0.000000 0.000000 0.082180 -0.014738 -0.102778 0.000833 -0.568769 -0.120000 0.057638 -1.171553 0.015066 -0.082177 0.014759 0.102643 -0.199279 -0.521160 0.082144 -0.219169 -1.044440 0.365658 -0.150552 0.274808 -0.023353 -0.329482 0.578856 -0.018798 -0.512217 0.716939 0.091306 -0.377333 0.773680 0.064223 -0.271658 0.556864 0.120175 -0.024744 0.340746 0.241177 -0.127188 0.046833 0.340497 -0.333964 0.477820 -0.155859 -0.336994 0.101140 -0.143854 -0.345032 -0.179334 0.050146
0.111979 1.196860 0.000087 0.000000 0.000000 0.000000 0.083037 -0.014588 -0.103910 0.002361 -0.570314 -0.121025 0.057597 -1.172555 0.020357 -0.083034 0.014609 0.103775 -0.199640 -0.522730 0.087890 -0.218757 -1.046096 0.372769 -0.150451 0.275434 -0.022964 -0.327281 0.579887 -0.017727 -0.509318 0.720181 0.092496 -0.377708 0.776226 0.066422 -0.271578 0.557359 0.122284 -0.029423 0.337011 0.240251 -0.129970 0.041214 0.339370 -0.329496 0.480090 -0.156074 -0.326691 0.103364 -0.146005 -0.329609 -0.176371 0.046073
0.104803 1.197693 0.000087 0.000000 0.000000 0.000000 0.083334 -0.014390 -0.105055 0.003451 -0.571259 -0.123688 0.058286 -1.172826 0.021117 -0.083331 0.014410 0.104921 -0.199284 -0.523696 0.093160 -0.217797 -1.047045 0.378355 -0.149706 0.275948 -0.022048 -0.324827 0.581067 -0.016518 -0.506017 0.723477 0.093411 -0.378759 0.779045 0.068210 -0.270721 0.558105 0.124416 -0.031945 0.334599 0.239322 -0.133142 0.036477 0.336253 -0.324987 0.482115 -0.155957 -0.318120 0.105642 -0.147098 -0.316521 -0.173733 0.043757
0.097837 1.198279 0.000085 0.000000 0.000000 0.000000 0.083084 -0.014118 -0.106187 0.004326 -0.571810 -0.126941 0.059923 -1.172670 0.019225 -0.083081 0.014139 0.106055 -0.198422 -0.524619 0.096539 -0.216151 -1.047782 0.382042 -0.148256 0.276463 -0.021161 -0.322065 0.582476 -0.016026 -0.502280 0.727057 0.093250 -0.379582 0.782045 0.069016 -0.269417 0.559152 0.125673 -0.033251 0.332677 0.237517 -0.136396 0.031661 0.330575 -0.320168 0.484147 -0.156371 -0.310608 0.108142 -0.148818 -0.305160 -0.171692 0.040577
0.091115 1.198590 0.000083 0.000000 0.000000 0.000000 0.082729 -0.013884 -0.107205 0.005070 -0.572439 -0.129608 0.062369 -1.172460 0.018308 -0.082727 0.013905 0.107077 -0.197538 -0.525918 0.097595 -0.213584 -1.048579 0.384552 -0.146188 0.277112 -0.020606 -0.318942 0.584118 -0.016646 -0.498106 0.730927 0.091438 -0.379494 0.784899 0.068820 -0.268163 0.560169 0.125796 -0.034896 0.330044 0.235370 -0.139743 0.025743 0.324228 -0.314749 0.486397 -0.157796 -0.303531 0.110903 -0.151897 -0.295477 -0.170513 0.035440
0.084456 1.198725 0.000081 0.000000 0.000000 0.000000 0.082597 -0.013741 -0.107772 0.005692 -0.573354 -0.131265 0.065396 -1.172286 0.019635 -0.082594 0.013762 0.107648 -0.196896 -0.527408 0.096735 -0.209842 -1.049293 0.385667 -0.143821 0.277941 -0.020235 -0.315142 0.585945 -0.018037 -0.493419 0.734868 0.088243 -0.378279 0.787314 0.068476 -0.267038 0.560679 0.125188 -0.038757 0.325346 0.234290 -0.144318 0.018476 0.320862 -0.308424 0.488916 -0.159777 -0.296479 0.113814 -0.156244 -0.287746 -0.170107 0.028606
0.077856 1.198669 0.000079 0.000000 0.000000 0.000000 0.082763 -0.013755 -0.107730 0.006463 -0.574565 -0.131868 0.068864 -1.172246 0.022955 -0.082761 0.013775 0.107608 -0.196220 -0.528731 0.094535 -0.204739 -1.050083 0.384697 -0.141466 0.278910 -0.020091 -0.310445 0.587999 -0.020232 -0.487760 0.738751 0.083988 -0.375419 0.789313 0.068282 -0.265825 0.560741 0.123677 -0.045965 0.318021 0.234364 -0.151107 0.009946 0.321502 -0.301169 0.491803 -0.162057 -0.289227 0.116894 -0.161876 -0.281957 -0.170047 0.020279
0.071513 1.198454 0.000078 0.000000 0.000000 0.000000 0.083441 -0.014011 -0.107477 0.007618 -0.576201 -0.132118 0.072550 -1.172808 0.027177 -0.083439 0.014031 0.107358 -0.195439 -0.529891 0.091931 -0.198607 -1.051493 0.382445 -0.139145 0.280030 -0.020212 -0.304984 0.590502 -0.023134 -0.480693 0.742789 0.079491 -0.370589 0.791498 0.068341 -0.264340 0.560818 0.121320 -0.056855 0.307563 0.235282 -0.160055 -0.000497 0.325748 -0.293308 0.495329 -0.164692 -0.281911 0.120346 -0.169060 -0.278164 -0.169981 0.010563
0.065584 1.198346 0.000076 0.000000 0.000000 0.000000 0.084785 -0.014463 -0.107458 0.009075 -0.578477 -0.132297 0.076304 -1.174091 0.031496 -0.084783 0.014483 0.107341 -0.194861 -0.530996 0.089579 -0.192166 -1.053910 0.379348 -0.136639 0.281318 -0.020500 -0.298716 0.593645 -0.026184 -0.472321 0.747469 0.075529 -0.364089 0.794668 0.069044 -0.262193 0.561229 0.118754 -0.070988 0.293392 0.237208 -0.170723 -0.013628 0.333606 -0.284952 0.499706 -0.167652 -0.274959 0.124231 -0.177766 -0.276713 -0.169714 0.000297
0.060133 1.198749 0.000074 0.000000 0.000000 0.000000 0.086593 -0.015092 -0.107624 0.010610 -0.581536 -0.131974 0.080300 -1.175763 0.035709 -0.086591 0.015112 0.107512 -0.194443 -0.531789 0.087860 -0.186062 -1.057255 0.374846 -0.133754 0.282655 -0.020875 -0.291256 0.597278 -0.028837 -0.462866 0.753052 0.071666 -0.356202 0.798891 0.070316 -0.258863 0.562097 0.116369 -0.086436 0.277288 0.239521 -0.182524 -0.027821 0.342727 -0.275766 0.504861 -0.170702 -0.268706 0.128346 -0.186925 -0.277528 -0.168530 -0.008356
0.055180 1.199522 0.000072 0.000000 0.000000 0.000000 0.088303 -0.015741 -0.107708 0.011523 -0.585067 -0.131490 0.084207 -1.177587 0.038004 -0.088302 0.015760 0.107600 -0.193687 -0.532325 0.086681 -0.180425 -1.061499 0.368238 -0.130383 0.283988 -0.020991 -0.282503 0.601216 -0.030319 -0.452040 0.759441 0.067947 -0.347080 0.803770 0.072272 -0.254064 0.563578 0.114583 -0.101118 0.262618 0.240521 -0.194402 -0.040327 0.348240 -0.265799 0.510732 -0.172820 -0.263348 0.132636 -0.193957 -0.280284 -0.165646 -0.012672
0.050317 1.200117 0.000068 0.000000 0.000000 0.000000 0.089385 -0.016184 -0.107679 0.011252 -0.588627 -0.131792 0.087693 -1.179473 0.036035 -0.089384 0.016203 0.107578 -0.192276 -0.533218 0.085555 -0.175030 -1.066549 0.359895 -0.126569 0.285369 -0.020391 -0.272999 0.605455 -0.030319 -0.439731 0.766400 0.064971 -0.337054 0.808930 0.075108 -0.248260 0.565701 0.113844 -0.114638 0.251049 0.239714 -0.206259 -0.049816 0.347580 -0.255632 0.517206 -0.173399 -0.258957 0.137371 -0.197745 -0.285050 -0.161037 -0.012704
0.045105 1.200264 0.000064 0.000000 0.000000 0.000000 0.090029 -0.016462 -0.107695 0.010044 -0.592128 -0.132666 0.091308 -1.181139 0.031120 -0.090029 0.016481 0.107601 -0.190550 -0.534888 0.084001 -0.169889 -1.072743 0.350928 -0.122465 0.286865 -0.019297 -0.263425 0.609846 -0.029935 -0.426523 0.773641 0.062015 -0.326198 0.813955 0.078099 -0.242424 0.568214 0.113592 -0.126418 0.242606 0.238150 -0.218269 -0.056304 0.342042 -0.245389 0.523798 -0.173816 -0.255165 0.142819 -0.200424 -0.291800 -0.155087 -0.012422
0.039443 1.200248 0.000061 0.000000 0.000000 0.000000 0.090968 -0.016755 -0.107651 0.008700 -0.595281 -0.133301 0.095836 -1.181934 0.026440 -0.090969 0.016773 0.107564 -0.188906 -0.537108 0.080867 -0.165375 -1.079834 0.342468 -0.118113 0.288523 -0.018316 -0.254019 0.614056 -0.030693 -0.412891 0.780704 0.058046 -0.314613 0.818422 0.080051 -0.237099 0.570577 0.112611 -0.135254 0.236456 0.236612 -0.230213 -0.061051 0.334363 -0.234673 0.529904 -0.175659 -0.251191 0.148950 -0.204306 -0.300015 -0.148151 -0.015542
